<?xml version="1.0" encoding="utf-8"?>
<!-- Uploaded to: SVG Repo, www.svgrepo.com, Generator: SVG Repo Mixer Tools -->
<svg width="48" height="50" viewBox="0 0 1024 1024" class="icon"  version="1.1" xmlns="http://www.w3.org/2000/svg"><path d="M598.5 483.7c-2.1 0-4.2-0.6-6.1-1.9-5-3.4-6.4-10.2-3-15.3l231.5-344.7c3.4-5 10.2-6.4 15.3-3 5 3.4 6.4 10.2 3 15.3L607.7 478.8c-2.2 3.2-5.6 4.9-9.2 4.9zM670.1 505c-2.7 0-5.4-1-7.5-2.9-4.5-4.1-4.7-11.1-0.6-15.5l333.3-359c4.1-4.5 11.1-4.7 15.5-0.6s4.7 11.1 0.6 15.5l-333.3 359c-2.1 2.3-5.1 3.5-8 3.5z" fill="#C13105" /><path d="M242.7 336.3c-28.2 0-51.2-22.9-51.2-51.2s22.9-51.2 51.2-51.2h78.5c6.1 0 11 4.9 11 11s-4.9 11-11 11h-78.5c-16.1 0-29.2 13.1-29.2 29.2s13.1 29.2 29.2 29.2c6.1 0 11 4.9 11 11s-5 11-11 11z" fill="#86878E" /><path d="M276.2 402.2h-70.8c-6.1 0-11-4.9-11-11s4.9-11 11-11h70.8c12.1 0 21.9-9.8 21.9-21.9s-9.8-21.9-21.9-21.9h-34.4c-6.1 0-11-4.9-11-11s4.9-11 11-11h34.4c24.2 0 43.9 19.7 43.9 43.9s-19.7 43.9-43.9 43.9z" fill="#86878E" /><path d="M189 421.3c-6.1 0-11-4.9-11-11 0-16.6 13.5-30.1 30.1-30.1h23.5c6.1 0 11 4.9 11 11s-4.9 11-11 11h-23.5c-4.5 0-8.1 3.6-8.1 8.1 0 6.1-4.9 11-11 11z" fill="#86878E" /><path d="M636.4 875.8H389.6C215.9 875.8 75.2 735 75.2 561.4V419.7h875.6v141.7c0 173.6-140.7 314.4-314.4 314.4z" fill="#80D331" /><path d="M636.4 886.8H389.6c-86.9 0-168.6-33.8-230.1-95.3S64.2 648.3 64.2 561.4V419.7c0-6.1 4.9-11 11-11h875.6c6.1 0 11 4.9 11 11v141.7c0 86.9-33.8 168.6-95.3 230.1s-143.2 95.3-230.1 95.3zM86.2 430.7v130.7c0 81 31.6 157.2 88.9 214.6 57.3 57.3 133.5 88.9 214.6 88.9h246.8c81 0 157.2-31.6 214.6-88.9 57.3-57.3 88.9-133.5 88.9-214.6V430.7H86.2z" fill="#28601E" /><path d="M890.5 886.8H102.3c-6.1 0-11-4.9-11-11s4.9-11 11-11h788.2c6.1 0 11 4.9 11 11s-4.9 11-11 11zM1003.4 430.7H22.6c-6.1 0-11-4.9-11-11s4.9-11 11-11h980.9c6.1 0 11 4.9 11 11s-5 11-11.1 11z" fill="#28601E" /><path d="M153.2 631.1c-6.1 0-11-4.9-11-11V509.9c0-6.1 4.9-11 11-11s11 4.9 11 11v110.2c0 6.1-5 11-11 11zM785.8 762.6c-3.1 0-6.2-1.3-8.4-3.9-3.9-4.6-3.3-11.6 1.3-15.5 24-20.2 44-46.8 57.6-76.8C850.8 634.9 858 600.8 858 565c0-6.1 4.9-11 11-11s11 4.9 11 11c0 38.9-8 76.1-23.6 110.5-15 33-37 62.2-63.5 84.5-2 1.8-4.6 2.6-7.1 2.6z" fill="#FFFFFF" /></svg>