<?xml version="1.0" encoding="utf-8"?>
<!-- Uploaded to: SVG Repo, www.svgrepo.com, Generator: SVG Repo Mixer Tools -->
<svg width="800px" height="800px" viewBox="0 0 1024 1024" class="icon"  version="1.1" xmlns="http://www.w3.org/2000/svg"><path d="M205.9 244.7c-35.2 0-63.9-28.7-63.9-63.9s28.6-63.9 63.9-63.9h103.3c6.1 0 11 4.9 11 11s-4.9 11-11 11H205.9c-23.1 0-41.9 18.8-41.9 41.9s18.8 41.9 41.9 41.9c6.1 0 11 4.9 11 11s-4.9 11-11 11z" fill="#86878E" /><path d="M250 331.4h-93.2c-6.1 0-11-4.9-11-11s4.9-11 11-11H250c17.8 0 32.3-14.5 32.3-32.3 0-17.8-14.5-32.3-32.3-32.3h-45.3c-6.1 0-11-4.9-11-11s4.9-11 11-11H250c30 0 54.3 24.4 54.3 54.3S280 331.4 250 331.4z" fill="#86878E" /><path d="M135.2 356.6c-6.1 0-11-4.9-11-11 0-19.9 16.2-36.1 36.1-36.1h31c6.1 0 11 4.9 11 11s-4.9 11-11 11h-31c-7.8 0-14.1 6.3-14.1 14.1 0 6-4.9 11-11 11z" fill="#86878E" /><path d="M508.9 248.2v194.7h-109c-4.1 0-7.5-3.3-7.5-7.5v-70.9c0.1-64.2 52.2-116.3 116.5-116.3z" fill="#FFD400" /><path d="M508.9 453.9h-109c-10.2 0-18.5-8.3-18.5-18.5v-70.9c0-70.3 57.2-127.4 127.4-127.4 6.1 0 11 4.9 11 11v194.7c0.1 6.2-4.8 11.1-10.9 11.1z m-105.4-22h94.4V259.8c-53 5.5-94.4 50.4-94.4 104.8v67.3z" fill="#C13105" /><path d="M770.2 497.3c6.4 6.3 6.4 16.7 0 23C732.5 557.5 603.7 672 450.7 672S168.9 557.4 131.2 520.2c-6.4-6.3-6.4-16.7 0-23 37.7-37.2 166.5-151.7 319.5-151.7s281.7 114.6 319.5 151.8z" fill="#FFD400" /><path d="M450.7 682.9c-67.5 0-137.7-21.3-208.6-63.5-56.6-33.6-98.6-71.7-118.6-91.4-5.2-5.1-8.1-12-8.1-19.3 0-7.3 2.9-14.2 8.1-19.3 20-19.7 62.1-57.8 118.6-91.4 70.9-42.1 141.1-63.5 208.6-63.5s137.7 21.3 208.6 63.5c56.6 33.6 98.6 71.7 118.6 91.4 5.2 5.1 8.1 12 8.1 19.3s-2.9 14.2-8.1 19.3c-20 19.7-62.1 57.8-118.6 91.4-70.9 42.2-141.1 63.5-208.6 63.5z m0-326.3c-37.8 0-171.8 10.7-311.8 148.5-1.3 1.3-1.5 2.9-1.5 3.7 0 0.8 0.2 2.3 1.5 3.7C278.9 650.3 413 661 450.7 661c37.8 0 171.8-10.7 311.8-148.5 1.3-1.3 1.5-2.9 1.5-3.7 0-0.8-0.2-2.3-1.5-3.7-140-137.8-274.1-148.5-311.8-148.5z" fill="#C13105" /><path d="M775 508.7l153.1 88.4V420.4z" fill="#FFD400" /><path d="M928.1 608.1c-1.9 0-3.8-0.5-5.5-1.5l-153.1-88.4c-3.4-2-5.5-5.6-5.5-9.5 0-3.9 2.1-7.6 5.5-9.5l153.1-88.4c3.4-2 7.6-2 11 0 3.4 2 5.5 5.6 5.5 9.5v176.8c0 3.9-2.1 7.6-5.5 9.5-1.7 1-3.6 1.5-5.5 1.5zM797 508.8l120.1 69.3V439.4L797 508.8zM339.9 555.8c-0.9 0-1.9-0.1-2.9-0.4-5.9-1.6-9.3-7.6-7.8-13.5 13.9-51.7-4.5-106.4-46.7-139.3-4.8-3.7-5.6-10.6-1.9-15.4s10.6-5.6 15.4-1.9c49.2 38.4 70.6 102.1 54.4 162.4-1.2 4.9-5.6 8.1-10.5 8.1zM246 538.1c-19.2 0-34.8-15.6-34.8-34.8s15.6-34.8 34.8-34.8 34.8 15.6 34.8 34.8-15.5 34.8-34.8 34.8z m0-47.7c-7.1 0-12.8 5.8-12.8 12.8 0 7.1 5.8 12.8 12.8 12.8s12.8-5.8 12.8-12.8c0.1-7.1-5.7-12.8-12.8-12.8z" fill="#C13105" /><path d="M607.8 480.4c-3.6 0-7.2-1.8-9.3-5C575 439 529 416.3 478.2 416.3c-6.1 0-11-4.9-11-11s4.9-11 11-11c58.1 0 111.3 26.5 138.8 69.2 3.3 5.1 1.8 11.9-3.3 15.2-1.8 1.1-3.8 1.7-5.9 1.7z" fill="#FFFFFF" /><path d="M751.2 873.4H271.5c-68.1 0-123.3-55.2-123.3-123.3 0-58.2 47.2-105.4 105.4-105.4h515.6c58.2 0 105.4 47.2 105.4 105.4-0.1 68.1-55.3 123.3-123.4 123.3z" fill="#26AEEA" /><path d="M751.2 884.4H271.5c-74.1 0-134.3-60.3-134.3-134.3 0-64.2 52.2-116.4 116.4-116.4h515.6c64.2 0 116.4 52.2 116.4 116.4-0.1 74-60.3 134.3-134.4 134.3zM253.5 655.7c-52.1 0-94.4 42.3-94.4 94.4 0 61.9 50.4 112.3 112.3 112.3h479.7c61.9 0 112.3-50.4 112.3-112.3 0-52.1-42.3-94.4-94.4-94.4H253.5z" fill="#17217F" /><path d="M779.5 821.9H243.1c-126.3 0-228.7-102.4-228.7-228.7h993.9c0 126.3-102.4 228.7-228.8 228.7z" fill="#26AEEA" /><path d="M779.5 832.9H243.1c-64 0-124.2-24.9-169.5-70.2S3.4 657.2 3.4 593.2c0-6.1 4.9-11 11-11h993.9c6.1 0 11 4.9 11 11 0 64-24.9 124.2-70.2 169.5s-105.5 70.2-169.6 70.2zM25.7 604.2c2.7 54 25 104.4 63.5 143 41.1 41.1 95.8 63.8 154 63.8h536.4c58.2 0 112.8-22.6 154-63.8 38.5-38.5 60.8-88.9 63.5-143H25.7z" fill="#17217F" /></svg>